<?xml version="1.0" encoding="utf-8"?>
<!-- Generator: Adobe Illustrator 19.2.0, SVG Export Plug-In . SVG Version: 6.00 Build 0)  -->
<svg version="1.1" id="Layer_1" xmlns="http://www.w3.org/2000/svg" xmlns:xlink="http://www.w3.org/1999/xlink" x="0px" y="0px"
	 viewBox="0 0 100 100" style="enable-background:new 0 0 100 100;" xml:space="preserve">
<style type="text/css">
	.st0{font-family:'Simplifica';}
	.st1{font-size:12px;}
	.st2{fill:none;stroke:#000000;stroke-width:0.25;stroke-miterlimit:10;}
</style>
<text transform="matrix(1 0 0 1 36.3025 63.5148)" class="st0 st1">H</text>
<text transform="matrix(1 0 0 1 46.4703 63.1401)" class="st0 st1">O</text>
<text transform="matrix(1 0 0 1 56.3444 75.3486)" class="st0 st1">D</text>
<text transform="matrix(1 0 0 1 65.9279 75.3486)" class="st0 st1">E</text>
<text transform="matrix(1 0 0 1 55.8439 63.1401)" class="st0 st1">Y</text>
<text transform="matrix(1 0 0 1 25.5942 63.1398)" class="st0 st1">A</text>
<text transform="matrix(1 0 0 1 36.3026 75.3486)" class="st0 st1">C</text>
<text transform="matrix(1 0 0 1 46.4701 75.3486)" class="st0 st1">O</text>
<line class="st2" x1="71.7" y1="54.4" x2="64.8" y2="54.4"/>
<line class="st2" x1="71.6" y1="63.5" x2="71.6" y2="54.4"/>
<line class="st2" x1="26.1" y1="74.9" x2="33" y2="74.9"/>
<line class="st2" x1="26.3" y1="65.8" x2="26.3" y2="74.9"/>
</svg>
